<svg xmlns="http://www.w3.org/2000/svg" viewBox="0 0 240 360" width="240" height="360">
  <defs>
    <linearGradient id="tmint" x1="0" y1="0" x2="0" y2="1">
      <stop offset="0%" stop-color="#f1fbf7" /><stop offset="60%" stop-color="#cdeee2" /><stop offset="100%" stop-color="#a7ddca" />
    </linearGradient>
    <linearGradient id="tag" x1="0" y1="0" x2="0" y2="1">
      <stop offset="0%" stop-color="#f0dfa0" /><stop offset="50%" stop-color="#c8a04a" /><stop offset="100%" stop-color="#a9791f" />
    </linearGradient>
  </defs>
  <rect width="240" height="360" fill="url(#tmint)" />
  <g fill="#7cc0a4">
    <ellipse cx="40" cy="36" rx="9" ry="4" transform="rotate(-25 40 36)" />
    <ellipse cx="60" cy="30" rx="9" ry="4" transform="rotate(-25 60 30)" />
    <ellipse cx="200" cy="36" rx="9" ry="4" transform="rotate(25 200 36)" />
    <ellipse cx="180" cy="30" rx="9" ry="4" transform="rotate(25 180 30)" />
  </g>
  <rect x="36" y="58" width="168" height="172" rx="10" fill="#e6f4ee" stroke="url(#tag)" stroke-width="4" />
  <text x="120" y="270" font-family="'Segoe Script','Brush Script MT',cursive" font-size="28" fill="#2e8b6f" text-anchor="middle">Nombre</text>
  <line x1="64" y1="286" x2="176" y2="286" stroke="url(#tag)" stroke-width="2" />
  <rect x="70" y="308" width="100" height="6" rx="3" fill="#aedbc9" />
  <rect x="84" y="328" width="72" height="6" rx="3" fill="#2e8b6f" />
</svg>
