<svg xmlns="http://www.w3.org/2000/svg" viewBox="0 0 1200 900" width="1200" height="900">
  <!-- tropical-esmeralda — CAPA 3 / tarjeta de la MITAD INFERIOR (0,900,1200,900).
       Coordenadas LOCALES: local_y = canvas_y - 900.
       retrato local 112,112 400x655
       panel   local 528,96 592x708
       Generado por scripts/build-caballete-assets.mjs -->
  <defs>
    <filter id="sh" filterUnits="userSpaceOnUse" x="20" y="20" width="1160" height="880">
      <feDropShadow dx="6" dy="12" stdDeviation="12" flood-color="#000000" flood-opacity="0.26"/>
    </filter>
    <linearGradient id="paper" x1="0.15" y1="0" x2="0.85" y2="1">
      <stop offset="0%" stop-color="#fffdf8"/>
      <stop offset="100%" stop-color="#f4e9d8"/>
    </linearGradient>
    <linearGradient id="gold" x1="0" y1="0" x2="0.4" y2="1">
      <stop offset="0%" stop-color="#e4d0a5"/>
      <stop offset="34%" stop-color="#c8a04a"/>
      <stop offset="56%" stop-color="#eadbba"/>
      <stop offset="86%" stop-color="#1f5e3c"/>
      <stop offset="100%" stop-color="#d9bd80"/>
    </linearGradient>
    <linearGradient id="rule" x1="0" y1="0" x2="1" y2="0">
      <stop offset="0%" stop-color="#c8a04a" stop-opacity="0.1"/>
      <stop offset="50%" stop-color="#e6d4ae" stop-opacity="0.95"/>
      <stop offset="100%" stop-color="#c8a04a" stop-opacity="0.1"/>
    </linearGradient>
    <symbol id="mo" viewBox="-50 -50 100 100"><path d="M2,46 C0,16 4,-14 14,-44" fill="none" stroke="currentColor" stroke-width="3.5" stroke-linecap="round"/><path d="M3,36 C-22,26 -40,12 -46,-6 C-30,10 -12,26 3,36 Z"/><path d="M5,36 C24,24 42,10 48,-8 C32,8 14,25 5,36 Z"/><path d="M3,16 C-20.240000000000002,6.799999999999999 -36.800000000000004,-6.080000000000002 -42.32,-22.64 C-27.6,-7.920000000000002 -11.040000000000001,6.799999999999999 3,16 Z"/><path d="M5,16 C22.080000000000002,4.959999999999999 38.64,-7.920000000000002 44.160000000000004,-24.480000000000004 C29.44,-9.760000000000002 12.88,5.879999999999999 5,16 Z"/><path d="M3,-6 C-17.6,-14 -32,-25.200000000000003 -36.800000000000004,-39.6 C-24,-26.8 -9.600000000000001,-14 3,-6 Z"/><path d="M5,-6 C19.200000000000003,-15.600000000000001 33.6,-26.8 38.400000000000006,-41.2 C25.6,-28.400000000000002 11.200000000000001,-14.8 5,-6 Z"/><path d="M3,-24 C-13.64,-30.2 -24.8,-38.879999999999995 -28.52,-50.04 C-18.6,-40.120000000000005 -7.4399999999999995,-30.2 3,-24 Z"/><path d="M5,-24 C14.879999999999999,-31.439999999999998 26.04,-40.120000000000005 29.759999999999998,-51.28 C19.84,-41.36 8.68,-30.82 5,-24 Z"/><path d="M3,-38 C-9.24,-42.2 -16.8,-48.08 -19.32,-55.64 C-12.6,-48.92 -5.04,-42.2 3,-38 Z"/><path d="M5,-38 C10.08,-43.04 17.64,-48.92 20.16,-56.480000000000004 C13.44,-49.76 5.88,-42.62 5,-38 Z"/></symbol>
  </defs>

  <g filter="url(#sh)">
    <rect x="60" y="50" width="1080" height="800" rx="18" fill="url(#paper)"/>
  </g>
  <rect x="60" y="50" width="1080" height="800" rx="18" fill="none"
        stroke="url(#gold)" stroke-width="5"/>
  <rect x="76" y="66" width="1048" height="768" rx="12"
        fill="none" stroke="url(#gold)" stroke-width="1.6" opacity="0.72"/>

  <!-- Panel del bloque de textos -->
  <rect x="528" y="96" width="592" height="708" rx="14" fill="#ffffff" opacity="0.92"/>
  <rect x="528" y="96" width="592" height="708" rx="14" fill="none"
        stroke="url(#gold)" stroke-width="1.4" opacity="0.45"/>

  <!-- Filete bajo el nombre -->
  <path d="M600,396 Q690,392.6 776,396 Q690,399.4 600,396 Z" fill="url(#rule)"/>
  <path d="M1048,396 Q958,392.6 872,396 Q958,399.4 1048,396 Z" fill="url(#rule)"/>
  <use href="#mo" x="-50" y="-50" width="100" height="100"
       transform="translate(824,396) scale(0.2)" fill="url(#gold)" color="#1f5e3c"/>

  <!-- Divisor sobre el pie de negocio -->
  <path d="M576,594 Q684,590.4 780,594 Q684,597.6 576,594 Z" fill="url(#rule)"/>
  <path d="M1072,594 Q964,590.4 868,594 Q964,597.6 1072,594 Z" fill="url(#rule)"/>
  <use href="#mo" x="-50" y="-50" width="100" height="100"
       transform="translate(824,594) scale(0.26)" fill="url(#gold)" color="#1f5e3c"/>

  <!-- Acentos en las esquinas de la tarjeta -->
  <g fill="url(#gold)" color="#1f5e3c" opacity="0.8">
    <use href="#mo" x="-50" y="-50" width="100" height="100" transform="translate(106,94) scale(0.5)"/>
    <use href="#mo" x="-50" y="-50" width="100" height="100" transform="translate(1094,806) rotate(180) scale(0.5)"/>
  </g>
</svg>
