<svg xmlns="http://www.w3.org/2000/svg" viewBox="0 0 240 360" width="240" height="360">
  <defs>
    <linearGradient id="tnight" x1="0" y1="0" x2="0" y2="1">
      <stop offset="0%" stop-color="#202a47" /><stop offset="55%" stop-color="#141c33" /><stop offset="100%" stop-color="#0b1124" />
    </linearGradient>
    <linearGradient id="tng" x1="0" y1="0" x2="0" y2="1">
      <stop offset="0%" stop-color="#f6e7a8" /><stop offset="50%" stop-color="#d4af52" /><stop offset="100%" stop-color="#a9791f" />
    </linearGradient>
    <symbol id="tstar" viewBox="-50 -50 100 100"><path d="M0,-48 L14,-15 L48,-15 L20,8 L30,42 L0,20 L-30,42 L-20,8 L-48,-15 L-14,-15 Z" /></symbol>
  </defs>
  <rect width="240" height="360" fill="url(#tnight)" />
  <g fill="url(#tng)">
    <use href="#tstar" x="24" y="26" width="22" height="22" />
    <use href="#tstar" x="196" y="40" width="18" height="18" />
  </g>
  <rect x="8" y="8" width="224" height="344" rx="10" fill="none" stroke="url(#tng)" stroke-width="3" />
  <rect x="30" y="44" width="180" height="150" rx="8" fill="#2a3354" stroke="url(#tng)" stroke-width="3" />
  <text x="120" y="240" font-family="'Segoe Script','Brush Script MT',cursive" font-size="30" fill="#e8c45a" text-anchor="middle">Nombre</text>
  <line x1="64" y1="256" x2="176" y2="256" stroke="url(#tng)" stroke-width="2" />
  <rect x="70" y="284" width="100" height="6" rx="3" fill="#9aa6c4" />
  <rect x="84" y="312" width="72" height="6" rx="3" fill="#e8c45a" />
</svg>
