<svg xmlns="http://www.w3.org/2000/svg" viewBox="0 0 240 360" width="240" height="360">
  <defs>
    <radialGradient id="trose" cx="50%" cy="30%" r="85%">
      <stop offset="0%" stop-color="#fff1f5" />
      <stop offset="60%" stop-color="#f8c5d6" />
      <stop offset="100%" stop-color="#f09fbb" />
    </radialGradient>
    <linearGradient id="trg" x1="0" y1="0" x2="0" y2="1">
      <stop offset="0%" stop-color="#e8d18a" />
      <stop offset="50%" stop-color="#c8a04a" />
      <stop offset="100%" stop-color="#a9791f" />
    </linearGradient>
  </defs>
  <rect width="240" height="360" fill="url(#trose)" />
  <path d="M40,40 C28,24 8,34 26,58 C44,34 52,24 40,40 Z" fill="#f3c14b" opacity="0.7" />
  <rect x="22" y="34" width="92" height="120" rx="8" fill="#fff" stroke="url(#trg)" stroke-width="5" transform="rotate(-3 68 94)" />
  <rect x="126" y="50" width="92" height="120" rx="8" fill="#fff" stroke="url(#trg)" stroke-width="5" transform="rotate(3 172 110)" />
  <rect x="14" y="180" width="212" height="166" rx="12" fill="#fff" stroke="url(#trg)" stroke-width="4" />
  <text x="120" y="226" font-family="'Segoe Script','Brush Script MT',cursive" font-size="28" fill="#c0306a" text-anchor="middle">Nombre</text>
  <path d="M120,236 C114,229 104,233 113,245 C122,233 126,229 120,236 Z" fill="#e0577f" />
  <rect x="64" y="270" width="112" height="6" rx="3" fill="#e7b9c8" />
  <rect x="80" y="296" width="80" height="6" rx="3" fill="#c0306a" />
</svg>
