<svg xmlns="http://www.w3.org/2000/svg" viewBox="0 0 1200 900" width="1200" height="900">
  <!-- birrete-de-honor — CAPA 7 / adorno de la MITAD INFERIOR (0,900,1200,900).
       Coordenadas LOCALES: local_y = canvas_y - 900. Monta la esquina del
       retrato para que el ramo lo pise, igual que arriba.
       Generado por scripts/build-caballete-assets.mjs -->
  <defs>
    <linearGradient id="bvT" x1="0" y1="0" x2="0" y2="1"><stop offset="0%" stop-color="#7c561f"/><stop offset="8%" stop-color="#f1e1c5"/><stop offset="20%" stop-color="#f6ecdb"/><stop offset="33%" stop-color="#ebd3ab"/><stop offset="48%" stop-color="#e0bc7e"/><stop offset="62%" stop-color="#835a20"/><stop offset="74%" stop-color="#68471a"/><stop offset="86%" stop-color="#e5c691"/><stop offset="100%" stop-color="#f3e4cb"/></linearGradient><linearGradient id="bvL" x1="0" y1="0" x2="1" y2="0"><stop offset="0%" stop-color="#7c561f"/><stop offset="8%" stop-color="#f1e1c5"/><stop offset="20%" stop-color="#f6ecdb"/><stop offset="33%" stop-color="#ebd3ab"/><stop offset="48%" stop-color="#e0bc7e"/><stop offset="62%" stop-color="#835a20"/><stop offset="74%" stop-color="#68471a"/><stop offset="86%" stop-color="#e5c691"/><stop offset="100%" stop-color="#f3e4cb"/></linearGradient><linearGradient id="bvB" x1="0" y1="1" x2="0" y2="0"><stop offset="0%" stop-color="#7c561f"/><stop offset="8%" stop-color="#f1e1c5"/><stop offset="20%" stop-color="#f6ecdb"/><stop offset="33%" stop-color="#ebd3ab"/><stop offset="48%" stop-color="#e0bc7e"/><stop offset="62%" stop-color="#835a20"/><stop offset="74%" stop-color="#68471a"/><stop offset="86%" stop-color="#e5c691"/><stop offset="100%" stop-color="#f3e4cb"/></linearGradient><linearGradient id="bvR" x1="1" y1="0" x2="0" y2="0"><stop offset="0%" stop-color="#7c561f"/><stop offset="8%" stop-color="#f1e1c5"/><stop offset="20%" stop-color="#f6ecdb"/><stop offset="33%" stop-color="#ebd3ab"/><stop offset="48%" stop-color="#e0bc7e"/><stop offset="62%" stop-color="#835a20"/><stop offset="74%" stop-color="#68471a"/><stop offset="86%" stop-color="#e5c691"/><stop offset="100%" stop-color="#f3e4cb"/></linearGradient><linearGradient id="isT" x1="0" y1="0" x2="0" y2="1"><stop offset="0%" stop-color="#3d2610" stop-opacity="0.3"/><stop offset="100%" stop-color="#3d2610" stop-opacity="0"/></linearGradient><linearGradient id="isB" x1="0" y1="1" x2="0" y2="0"><stop offset="0%" stop-color="#3d2610" stop-opacity="0.3"/><stop offset="100%" stop-color="#3d2610" stop-opacity="0"/></linearGradient><linearGradient id="isL" x1="0" y1="0" x2="1" y2="0"><stop offset="0%" stop-color="#3d2610" stop-opacity="0.3"/><stop offset="100%" stop-color="#3d2610" stop-opacity="0"/></linearGradient><linearGradient id="isR" x1="1" y1="0" x2="0" y2="0"><stop offset="0%" stop-color="#3d2610" stop-opacity="0.3"/><stop offset="100%" stop-color="#3d2610" stop-opacity="0"/></linearGradient><filter id="castR" x="-16%" y="-12%" width="136%" height="128%">
      <feDropShadow dx="9" dy="14" stdDeviation="11" flood-color="#000000" flood-opacity="0.34"/>
    </filter>
    <linearGradient id="pt" x1="0" y1="1" x2="0.15" y2="0">
      <stop offset="0%" stop-color="#b8a88b"/>
      <stop offset="58%" stop-color="#ecd7b2"/>
      <stop offset="100%" stop-color="#f7efe0"/>
    </linearGradient>
    <symbol id="mot" viewBox="-50 -50 100 100"><path d="M-22,3 C-23,12 -20,21 -16,26 C-5,30 5,30 16,26 C20,21 23,12 22,3 Z"/><path d="M0,-36 L50,-11 L0,10 L-50,-11 Z"/><path d="M1,-14 C20,-12 38,-6 45,3 C49,10 49,19 48,27 L41,26 C42,19 42,11 39,6 C33,-1 17,-6 1,-8 Z"/><path d="M43,25 C48,29 50,36 47,44 C44,48 40,48 37,44 C34,36 37,29 43,25 Z"/><circle cx="0" cy="-11" r="6" fill="none" stroke="currentColor" stroke-width="2.6" opacity="0.5"/></symbol>
    <symbol id="dec" viewBox="-100 -100 200 200">
      <g fill="url(#pt)" color="#8a5f22">
        <use href="#mot" x="-50" y="-50" width="100" height="100" transform="translate(-22,10) rotate(-18) scale(1.5)"/>
        <use href="#mot" x="-50" y="-50" width="100" height="100" transform="translate(30,-14) rotate(22) scale(1.15)"/>
        <use href="#mot" x="-50" y="-50" width="100" height="100" transform="translate(6,44) rotate(6) scale(0.85)"/>
      </g>
    </symbol>
    <linearGradient id="pnl" x1="0" y1="0" x2="0.4" y2="1">
      <stop offset="0%" stop-color="#eedab8"/>
      <stop offset="52%" stop-color="#e0bc7e"/>
      <stop offset="100%" stop-color="#8a5f22"/>
    </linearGradient>
    <symbol id="pmo" viewBox="-50 -50 100 100"><path d="M-22,3 C-23,12 -20,21 -16,26 C-5,30 5,30 16,26 C20,21 23,12 22,3 Z"/><path d="M0,-36 L50,-11 L0,10 L-50,-11 Z"/><path d="M1,-14 C20,-12 38,-6 45,3 C49,10 49,19 48,27 L41,26 C42,19 42,11 39,6 C33,-1 17,-6 1,-8 Z"/><path d="M43,25 C48,29 50,36 47,44 C44,48 40,48 37,44 C34,36 37,29 43,25 Z"/><circle cx="0" cy="-11" r="6" fill="none" stroke="currentColor" stroke-width="2.6" opacity="0.5"/></symbol>
    <filter id="dr" x="-26%" y="-26%" width="154%" height="154%">
      <feDropShadow dx="4" dy="7" stdDeviation="6" flood-color="#000000" flood-opacity="0.26"/>
    </filter>
  </defs>
  <g transform="translate(112,112)" filter="url(#castR)">
      <path d="M-15,-15 L415,-15 L400,0 L0,0 Z" fill="url(#bvT)"/>
      <path d="M-15,-15 L0,0 L0,655 L-15,670 Z" fill="url(#bvL)"/>
      <path d="M415,-15 L415,670 L400,655 L400,0 Z" fill="url(#bvR)"/>
      <path d="M415,670 L-15,670 L0,655 L400,655 Z" fill="url(#bvB)"/>
      <rect x="-15" y="-15" width="430" height="685" fill="none" stroke="#00000055" stroke-width="1.4"/>
      <rect x="1.2" y="1.2" width="397.6" height="652.6" fill="none" stroke="#ffffffaa" stroke-width="2.2"/>
      <rect x="0" y="0" width="400" height="18" fill="url(#isT)"/>
      <rect x="0" y="637" width="400" height="18" fill="url(#isB)"/>
      <rect x="0" y="0" width="18" height="655" fill="url(#isL)"/>
      <rect x="382" y="0" width="18" height="655" fill="url(#isR)"/>
  </g>
  <!--
    Tratamiento del PANEL de textos. Sin esto se leía como una caja blanca
    vacía: el bloque tipográfico solo ocupa la franja central y deja mucho
    aire a los lados, sobre todo cuando el nombre cabe en una línea.
    Todo va en los márgenes del panel (x 528..1120, y 96..804 en local), que
    es donde no hay texto nunca.
  -->
  <g fill="none" stroke="url(#pnl)" stroke-linecap="round" opacity="0.85">
    <path d="M556,124 C556,110 566,102 580,102" stroke-width="2"/>
    <path d="M1092,124 C1092,110 1082,102 1068,102" stroke-width="2"/>
    <path d="M556,776 C556,790 566,798 580,798" stroke-width="2"/>
    <path d="M1092,776 C1092,790 1082,798 1068,798" stroke-width="2"/>
    <path d="M542,300 C534,360 534,440 542,500" stroke-width="1.6" opacity="0.6"/>
    <path d="M1106,300 C1114,360 1114,440 1106,500" stroke-width="1.6" opacity="0.6"/>
  </g>
  <g fill="url(#pnl)" opacity="0.9">
    <use href="#pmo" x="-50" y="-50" width="100" height="100" transform="translate(824,742) scale(0.34)"/>
    <use href="#pmo" x="-50" y="-50" width="100" height="100" transform="translate(742,754) scale(0.19)" opacity="0.7"/>
    <use href="#pmo" x="-50" y="-50" width="100" height="100" transform="translate(906,754) scale(0.19)" opacity="0.7"/>
  </g>

  <g filter="url(#dr)">
    <use href="#dec" x="-100" y="-100" width="200" height="200" transform="translate(126,118) scale(0.6)"/>
    <use href="#dec" x="-100" y="-100" width="200" height="200" transform="translate(214,86) rotate(18) scale(0.42)"/>
    <use href="#dec" x="-100" y="-100" width="200" height="200" transform="translate(74,196) rotate(-14) scale(0.36)"/>
    <use href="#dec" x="-100" y="-100" width="200" height="200" transform="translate(506,782) rotate(14) scale(0.44)"/>
    <use href="#dec" x="-100" y="-100" width="200" height="200" transform="translate(428,808) rotate(-18) scale(0.32)"/>
    <use href="#dec" x="-100" y="-100" width="200" height="200" transform="translate(1084,96) rotate(20) scale(0.38)"/>
  </g>
</svg>
