<svg xmlns="http://www.w3.org/2000/svg" viewBox="0 0 240 360" width="240" height="360">
  <defs>
    <linearGradient id="tsage" x1="0" y1="0" x2="0" y2="1">
      <stop offset="0%" stop-color="#f6f8f1" /><stop offset="60%" stop-color="#e3ecda" /><stop offset="100%" stop-color="#cdddbf" />
    </linearGradient>
    <linearGradient id="tbg" x1="0" y1="0" x2="0" y2="1">
      <stop offset="0%" stop-color="#f0dfa0" /><stop offset="50%" stop-color="#c8a04a" /><stop offset="100%" stop-color="#a9791f" />
    </linearGradient>
    <symbol id="tbleaf" viewBox="-30 -12 60 24"><path d="M-28,0 C-14,-13 14,-13 28,0 C14,13 -14,13 -28,0 Z" fill="#7fa06a" /></symbol>
  </defs>
  <rect width="240" height="360" fill="url(#tsage)" />
  <g transform="translate(120,108)">
    <use href="#tbleaf" width="40" height="16" transform="rotate(0) translate(74,-8)" />
    <use href="#tbleaf" width="40" height="16" transform="rotate(45) translate(74,-8)" />
    <use href="#tbleaf" width="40" height="16" transform="rotate(90) translate(74,-8)" />
    <use href="#tbleaf" width="40" height="16" transform="rotate(135) translate(74,-8)" />
    <use href="#tbleaf" width="40" height="16" transform="rotate(180) translate(74,-8)" />
    <use href="#tbleaf" width="40" height="16" transform="rotate(225) translate(74,-8)" />
    <use href="#tbleaf" width="40" height="16" transform="rotate(270) translate(74,-8)" />
    <use href="#tbleaf" width="40" height="16" transform="rotate(315) translate(74,-8)" />
  </g>
  <circle cx="120" cy="108" r="56" fill="#e7ecdf" stroke="url(#tbg)" stroke-width="4" />
  <text x="120" y="218" font-family="'Segoe Script','Brush Script MT',cursive" font-size="28" fill="#4f7a52" text-anchor="middle">Nombre</text>
  <line x1="64" y1="234" x2="176" y2="234" stroke="url(#tbg)" stroke-width="2" />
  <rect x="70" y="262" width="100" height="6" rx="3" fill="#bcd0ab" />
  <rect x="84" y="294" width="72" height="6" rx="3" fill="#4f7a52" />
</svg>
