<svg xmlns="http://www.w3.org/2000/svg" viewBox="0 0 1200 900" width="1200" height="900">
  <!-- mariposas-doradas — CAPA 3 / tarjeta de la MITAD INFERIOR (0,900,1200,900).
       Coordenadas LOCALES: local_y = canvas_y - 900.
       retrato local 112,112 400x655
       panel   local 528,96 592x708
       Generado por scripts/build-caballete-assets.mjs -->
  <defs>
    <filter id="sh" filterUnits="userSpaceOnUse" x="20" y="20" width="1160" height="880">
      <feDropShadow dx="6" dy="12" stdDeviation="12" flood-color="#000000" flood-opacity="0.26"/>
    </filter>
    <linearGradient id="paper" x1="0.15" y1="0" x2="0.85" y2="1">
      <stop offset="0%" stop-color="#fffdf8"/>
      <stop offset="100%" stop-color="#f4e9d8"/>
    </linearGradient>
    <linearGradient id="gold" x1="0" y1="0" x2="0.4" y2="1">
      <stop offset="0%" stop-color="#eeddb1"/>
      <stop offset="34%" stop-color="#dcbb62"/>
      <stop offset="56%" stop-color="#f2e5c3"/>
      <stop offset="86%" stop-color="#a9791f"/>
      <stop offset="100%" stop-color="#e7cf91"/>
    </linearGradient>
    <linearGradient id="rule" x1="0" y1="0" x2="1" y2="0">
      <stop offset="0%" stop-color="#dcbb62" stop-opacity="0.1"/>
      <stop offset="50%" stop-color="#efe0b8" stop-opacity="0.95"/>
      <stop offset="100%" stop-color="#dcbb62" stop-opacity="0.1"/>
    </linearGradient>
    <symbol id="mo" viewBox="-50 -50 100 100"><g><ellipse cx="0" cy="-24" rx="13" ry="22" transform="rotate(0)"/><ellipse cx="0" cy="-24" rx="13" ry="22" transform="rotate(72)"/><ellipse cx="0" cy="-24" rx="13" ry="22" transform="rotate(144)"/><ellipse cx="0" cy="-24" rx="13" ry="22" transform="rotate(216)"/><ellipse cx="0" cy="-24" rx="13" ry="22" transform="rotate(288)"/></g><circle r="10" opacity="0.75"/></symbol>
  </defs>

  <g filter="url(#sh)">
    <rect x="60" y="50" width="1080" height="800" rx="18" fill="url(#paper)"/>
  </g>
  <rect x="60" y="50" width="1080" height="800" rx="18" fill="none"
        stroke="url(#gold)" stroke-width="5"/>
  <rect x="76" y="66" width="1048" height="768" rx="12"
        fill="none" stroke="url(#gold)" stroke-width="1.6" opacity="0.72"/>

  <!-- Panel del bloque de textos -->
  <rect x="528" y="96" width="592" height="708" rx="14" fill="#ffffff" opacity="0.92"/>
  <rect x="528" y="96" width="592" height="708" rx="14" fill="none"
        stroke="url(#gold)" stroke-width="1.4" opacity="0.45"/>

  <!-- Filete bajo el nombre -->
  <path d="M600,348 Q690,344.6 776,348 Q690,351.4 600,348 Z" fill="url(#rule)"/>
  <path d="M1048,348 Q958,344.6 872,348 Q958,351.4 1048,348 Z" fill="url(#rule)"/>
  <use href="#mo" x="-50" y="-50" width="100" height="100"
       transform="translate(824,348) scale(0.2)" fill="url(#gold)" color="#a9791f"/>

  <!-- Divisor sobre el pie de negocio -->
  <path d="M576,545 Q684,541.4 780,545 Q684,548.6 576,545 Z" fill="url(#rule)"/>
  <path d="M1072,545 Q964,541.4 868,545 Q964,548.6 1072,545 Z" fill="url(#rule)"/>
  <use href="#mo" x="-50" y="-50" width="100" height="100"
       transform="translate(824,545) scale(0.26)" fill="url(#gold)" color="#a9791f"/>

  <!-- Acentos en las esquinas de la tarjeta -->
  <g fill="url(#gold)" color="#a9791f" opacity="0.8">
    <use href="#mo" x="-50" y="-50" width="100" height="100" transform="translate(106,94) scale(0.5)"/>
    <use href="#mo" x="-50" y="-50" width="100" height="100" transform="translate(1094,806) rotate(180) scale(0.5)"/>
  </g>
</svg>
