<svg xmlns="http://www.w3.org/2000/svg" viewBox="0 0 1200 1800" width="1200" height="1800">
  <defs>
    <linearGradient id="wing" x1="0" y1="0" x2="1" y2="1">
      <stop offset="0%" stop-color="#f7a8cf" />
      <stop offset="55%" stop-color="#ea4b96" />
      <stop offset="100%" stop-color="#c01f6e" />
    </linearGradient>
    <symbol id="butterfly" viewBox="-62 -60 124 124">
      <g stroke="#a9791f" stroke-width="2" stroke-linejoin="round">
        <path d="M-2,2 C-52,-58 -70,-12 -40,-2 C-66,2 -52,40 -10,12 Z" fill="url(#wing)" />
        <path d="M2,2 C52,-58 70,-12 40,-2 C66,2 52,40 10,12 Z" fill="url(#wing)" />
        <ellipse cx="0" cy="2" rx="4" ry="16" fill="#6f2f57" stroke="none" />
        <circle cx="0" cy="-14" r="4" fill="#6f2f57" stroke="none" />
        <path d="M-2,-16 C-10,-30 -18,-32 -24,-34" fill="none" stroke-width="2" />
        <path d="M2,-16 C10,-30 18,-32 24,-34" fill="none" stroke-width="2" />
      </g>
    </symbol>
  </defs>

  <use href="#butterfly" x="40" y="520" width="240" height="240"
       transform="rotate(-12 160 640)" />
  <use href="#butterfly" x="1000" y="700" width="170" height="170"
       transform="rotate(16 1085 785)" />
  <use href="#butterfly" x="1060" y="200" width="110" height="110"
       transform="rotate(-8 1115 255)" opacity="0.95" />
</svg>
