<svg xmlns="http://www.w3.org/2000/svg" viewBox="0 0 240 360" width="240" height="360">
  <defs>
    <linearGradient id="ug" x1="0" y1="0" x2="0" y2="1">
      <stop offset="0%" stop-color="#e8d49a" />
      <stop offset="50%" stop-color="#b99a55" />
      <stop offset="100%" stop-color="#8a6d3b" />
    </linearGradient>
  </defs>
  <rect width="240" height="360" fill="#d9d2c5" />
  <rect x="6" y="6" width="228" height="348" rx="6" fill="none" stroke="url(#ug)" stroke-width="1" opacity="0.7" />
  <line x1="14" y1="180" x2="226" y2="180" stroke="#b99a55" stroke-width="0.8" stroke-dasharray="4 5" opacity="0.5" />
  <!-- marcos finos superiores -->
  <rect x="43" y="51" width="58" height="80" rx="1.5" fill="#e9e2d4" stroke="url(#ug)" stroke-width="2.5" />
  <rect x="140" y="50" width="57" height="80" rx="1.5" fill="#e9e2d4" stroke="url(#ug)" stroke-width="2.5" />
  <g fill="#cbbfa6">
    <circle cx="60" cy="78" r="6" /><path d="M49,128 L70,100 L92,128 Z" />
    <circle cx="156" cy="77" r="6" /><path d="M146,127 L167,99 L189,127 Z" />
  </g>
  <!-- laurel central -->
  <g stroke="url(#ug)" stroke-width="1.2" fill="none">
    <path d="M120,112 q-13,-3 -17,-14" /><path d="M120,112 q13,-3 17,-14" />
  </g>
  <g fill="url(#ug)">
    <ellipse cx="110" cy="104" rx="3" ry="1.4" transform="rotate(35 110 104)" />
    <ellipse cx="106" cy="99" rx="3" ry="1.4" transform="rotate(25 106 99)" />
    <ellipse cx="130" cy="104" rx="3" ry="1.4" transform="rotate(-35 130 104)" />
    <ellipse cx="134" cy="99" rx="3" ry="1.4" transform="rotate(-25 134 99)" />
  </g>
  <!-- retrato inferior -->
  <rect x="24" y="205" width="78" height="131" rx="1.5" fill="#e9e2d4" stroke="url(#ug)" stroke-width="2.5" />
  <g fill="#cbbfa6"><circle cx="48" cy="242" r="7" /><path d="M34,300 L58,266 L84,300 Z" /></g>
  <g fill="url(#ug)">
    <ellipse cx="24" cy="200" rx="3.2" ry="1.4" transform="rotate(40 24 200)" />
    <ellipse cx="30" cy="204" rx="3.2" ry="1.4" transform="rotate(20 30 204)" />
  </g>
  <!-- textos -->
  <text x="170" y="232" text-anchor="middle" font-family="'Segoe Script','Brush Script MT',cursive" font-size="19" fill="url(#ug)">Ana &amp; Luis</text>
  <line x1="146" y1="242" x2="196" y2="242" stroke="url(#ug)" stroke-width="0.8" />
  <text x="170" y="256" text-anchor="middle" font-family="Georgia,serif" font-size="8" letter-spacing="1.5" fill="#6e6656">12 · 09 · 2026</text>
  <rect x="146" y="266" width="50" height="4" rx="2" fill="#c2b79c" />
  <rect x="152" y="276" width="38" height="4" rx="2" fill="#c2b79c" />
  <rect x="150" y="290" width="42" height="4" rx="2" fill="#b99a55" opacity="0.8" />
</svg>
