<svg xmlns="http://www.w3.org/2000/svg" viewBox="0 0 240 360" width="240" height="360">
  <defs>
    <linearGradient id="tivory" x1="0" y1="0" x2="0" y2="1">
      <stop offset="0%" stop-color="#fbfdf8" /><stop offset="100%" stop-color="#eef4e6" />
    </linearGradient>
    <linearGradient id="temerald" x1="0" y1="0" x2="1" y2="1">
      <stop offset="0%" stop-color="#3f8f63" /><stop offset="100%" stop-color="#1f5e3c" />
    </linearGradient>
    <linearGradient id="ttg" x1="0" y1="0" x2="0" y2="1">
      <stop offset="0%" stop-color="#f0dfa0" /><stop offset="50%" stop-color="#c8a04a" /><stop offset="100%" stop-color="#a9791f" />
    </linearGradient>
  </defs>
  <rect width="240" height="360" fill="url(#tivory)" />
  <path d="M10,20 C40,8 80,8 110,30 C80,40 40,40 10,46 Z" fill="url(#temerald)" transform="rotate(20 60 30)" />
  <path d="M230,340 C200,352 160,352 130,330 C160,320 200,320 230,314 Z" fill="url(#temerald)" transform="rotate(20 180 330)" />
  <rect x="40" y="60" width="160" height="170" rx="10" fill="#e8efe1" stroke="url(#ttg)" stroke-width="4" />
  <text x="120" y="270" font-family="'Segoe Script','Brush Script MT',cursive" font-size="28" fill="#2f7a4e" text-anchor="middle">Nombre</text>
  <line x1="64" y1="286" x2="176" y2="286" stroke="url(#ttg)" stroke-width="2" />
  <rect x="70" y="308" width="100" height="6" rx="3" fill="#bcd6c2" />
  <rect x="84" y="328" width="72" height="6" rx="3" fill="#2f7a4e" />
</svg>
