<svg xmlns="http://www.w3.org/2000/svg" viewBox="0 0 1200 900" width="1200" height="900">
  <!-- laurel-tinta — CAPA 3 / tarjeta de la MITAD INFERIOR (0,900,1200,900).
       Coordenadas LOCALES: local_y = canvas_y - 900.
       retrato local 112,112 400x655
       panel   local 528,96 592x708
       Generado por scripts/build-caballete-assets.mjs -->
  <defs>
    <filter id="sh" filterUnits="userSpaceOnUse" x="20" y="20" width="1160" height="880">
      <feDropShadow dx="6" dy="12" stdDeviation="12" flood-color="#000000" flood-opacity="0.26"/>
    </filter>
    <linearGradient id="paper" x1="0.15" y1="0" x2="0.85" y2="1">
      <stop offset="0%" stop-color="#fffdf8"/>
      <stop offset="100%" stop-color="#f4e9d8"/>
    </linearGradient>
    <linearGradient id="gold" x1="0" y1="0" x2="0.4" y2="1">
      <stop offset="0%" stop-color="#8fb7b5"/>
      <stop offset="34%" stop-color="#1f6f6b"/>
      <stop offset="56%" stop-color="#aac8c7"/>
      <stop offset="86%" stop-color="#0c3b3c"/>
      <stop offset="100%" stop-color="#629a97"/>
    </linearGradient>
    <linearGradient id="rule" x1="0" y1="0" x2="1" y2="0">
      <stop offset="0%" stop-color="#1f6f6b" stop-opacity="0.1"/>
      <stop offset="50%" stop-color="#9abebc" stop-opacity="0.95"/>
      <stop offset="100%" stop-color="#1f6f6b" stop-opacity="0.1"/>
    </linearGradient>
    <symbol id="mo" viewBox="-50 -50 100 100"><path d="M0,-36 A36,36 0 0 1 4,35" fill="none" stroke="currentColor" stroke-width="3.4" opacity="0.6"/><path d="M0,-36 A36,36 0 0 0 -4,35" fill="none" stroke="currentColor" stroke-width="3.4" opacity="0.6"/><g transform="rotate(22)"><ellipse cx="0" cy="-36" rx="7" ry="12.5" transform="rotate(-24,0,-36)"/></g><g transform="rotate(-22)"><ellipse cx="0" cy="-36" rx="7" ry="12.5" transform="rotate(24,0,-36)"/></g><g transform="rotate(48)"><ellipse cx="0" cy="-36" rx="7" ry="12.5" transform="rotate(-24,0,-36)"/></g><g transform="rotate(-48)"><ellipse cx="0" cy="-36" rx="7" ry="12.5" transform="rotate(24,0,-36)"/></g><g transform="rotate(74)"><ellipse cx="0" cy="-36" rx="7" ry="12.5" transform="rotate(-24,0,-36)"/></g><g transform="rotate(-74)"><ellipse cx="0" cy="-36" rx="7" ry="12.5" transform="rotate(24,0,-36)"/></g><g transform="rotate(100)"><ellipse cx="0" cy="-36" rx="7" ry="12.5" transform="rotate(-24,0,-36)"/></g><g transform="rotate(-100)"><ellipse cx="0" cy="-36" rx="7" ry="12.5" transform="rotate(24,0,-36)"/></g><g transform="rotate(126)"><ellipse cx="0" cy="-36" rx="7" ry="12.5" transform="rotate(-24,0,-36)"/></g><g transform="rotate(-126)"><ellipse cx="0" cy="-36" rx="7" ry="12.5" transform="rotate(24,0,-36)"/></g></symbol>
  </defs>

  <g filter="url(#sh)">
    <rect x="60" y="50" width="1080" height="800" rx="18" fill="url(#paper)"/>
  </g>
  <rect x="60" y="50" width="1080" height="800" rx="18" fill="none"
        stroke="url(#gold)" stroke-width="5"/>
  <rect x="76" y="66" width="1048" height="768" rx="12"
        fill="none" stroke="url(#gold)" stroke-width="1.6" opacity="0.72"/>

  <!-- Panel del bloque de textos -->
  <rect x="528" y="96" width="592" height="708" rx="14" fill="#ffffff" opacity="0.92"/>
  <rect x="528" y="96" width="592" height="708" rx="14" fill="none"
        stroke="url(#gold)" stroke-width="1.4" opacity="0.45"/>

  <!-- Filete bajo el nombre -->
  <path d="M600,396 Q690,392.6 776,396 Q690,399.4 600,396 Z" fill="url(#rule)"/>
  <path d="M1048,396 Q958,392.6 872,396 Q958,399.4 1048,396 Z" fill="url(#rule)"/>
  <use href="#mo" x="-50" y="-50" width="100" height="100"
       transform="translate(824,396) scale(0.2)" fill="url(#gold)" color="#0c3b3c"/>

  <!-- Divisor sobre el pie de negocio -->
  <path d="M576,594 Q684,590.4 780,594 Q684,597.6 576,594 Z" fill="url(#rule)"/>
  <path d="M1072,594 Q964,590.4 868,594 Q964,597.6 1072,594 Z" fill="url(#rule)"/>
  <use href="#mo" x="-50" y="-50" width="100" height="100"
       transform="translate(824,594) scale(0.26)" fill="url(#gold)" color="#0c3b3c"/>

  <!-- Acentos en las esquinas de la tarjeta -->
  <g fill="url(#gold)" color="#0c3b3c" opacity="0.8">
    <use href="#mo" x="-50" y="-50" width="100" height="100" transform="translate(106,94) scale(0.5)"/>
    <use href="#mo" x="-50" y="-50" width="100" height="100" transform="translate(1094,806) rotate(180) scale(0.5)"/>
  </g>
</svg>
